<svg xmlns="http://www.w3.org/2000/svg" width="522" height="202" viewBox="0 0 522 202" font-family="Segoe UI, Arial, sans-serif">
  <rect width="100%" height="100%" fill="#0d1117"/>
  <circle cx="110" cy="132" r="100" fill="none" stroke="#3178C6" stroke-width="52" stroke-dasharray="251.3 377.0" stroke-dashoffset="-0.0" transform="rotate(-90 110 132)"/><circle cx="110" cy="132" r="100" fill="none" stroke="#3776AB" stroke-width="52" stroke-dasharray="188.5 439.8" stroke-dashoffset="-251.3" transform="rotate(-90 110 132)"/><circle cx="110" cy="132" r="100" fill="none" stroke="#F37626" stroke-width="52" stroke-dasharray="62.8 565.5" stroke-dashoffset="-439.8" transform="rotate(-90 110 132)"/><circle cx="110" cy="132" r="100" fill="none" stroke="#F7DF1E" stroke-width="52" stroke-dasharray="62.8 565.5" stroke-dashoffset="-502.7" transform="rotate(-90 110 132)"/><circle cx="110" cy="132" r="100" fill="none" stroke="#00ADD8" stroke-width="52" stroke-dasharray="62.8 565.5" stroke-dashoffset="-565.5" transform="rotate(-90 110 132)"/>
  <text x="110" y="126" text-anchor="middle" fill="#e5e7eb" font-size="20" font-weight="600">Mobin</text>
  <text x="110" y="150" text-anchor="middle" fill="#9ca3af" font-size="14">public repos</text>
  <rect x="240" y="93" width="14" height="14" rx="3" fill="#3178C6"/><text x="264" y="103" fill="#d1d5db" font-size="15">TypeScript</text><text x="490" y="103" fill="#9ca3af" font-size="15" text-anchor="end">40%</text><rect x="240" y="120" width="14" height="14" rx="3" fill="#3776AB"/><text x="264" y="130" fill="#d1d5db" font-size="15">Python</text><text x="490" y="130" fill="#9ca3af" font-size="15" text-anchor="end">30%</text><rect x="240" y="147" width="14" height="14" rx="3" fill="#F37626"/><text x="264" y="157" fill="#d1d5db" font-size="15">Jupyter Notebook</text><text x="490" y="157" fill="#9ca3af" font-size="15" text-anchor="end">10%</text><rect x="240" y="174" width="14" height="14" rx="3" fill="#F7DF1E"/><text x="264" y="184" fill="#d1d5db" font-size="15">JavaScript</text><text x="490" y="184" fill="#9ca3af" font-size="15" text-anchor="end">10%</text><rect x="240" y="201" width="14" height="14" rx="3" fill="#00ADD8"/><text x="264" y="211" fill="#d1d5db" font-size="15">Go</text><text x="490" y="211" fill="#9ca3af" font-size="15" text-anchor="end">10%</text>
  <text x="240" y="237" fill="#6b7280" font-size="11" text-transform="uppercase">language share</text>
</svg>